<svg fill="#fff" id="Capa_1" data-name="Capa 1" xmlns="http://www.w3.org/2000/svg" viewBox="0 0 442.28 89.98"><title>Sin título-1</title><path d="M265.42,214.44a8.38,8.38,0,0,0-2-5.78c-1.34-1.51-3.69-2.89-7.07-4.13q-7.2-2.25-11.07-5.8a12.22,12.22,0,0,1-3.87-9.46,13,13,0,0,1,4.27-10,15.59,15.59,0,0,1,11-3.92q7.1,0,11.39,4.36a14.46,14.46,0,0,1,4.14,10.94l-.07.21h-6.85a10.79,10.79,0,0,0-2.39-7.28,7.92,7.92,0,0,0-6.3-2.78,7.4,7.4,0,0,0-5.88,2.39,8.75,8.75,0,0,0-2.1,6,7.4,7.4,0,0,0,2.22,5.52q2.22,2.17,7.45,4.11,7,2.29,10.65,6a13,13,0,0,1,3.66,9.56,12.47,12.47,0,0,1-4.31,10q-4.31,3.71-11.3,3.71a18.2,18.2,0,0,1-11.74-4q-5-4-4.82-11.5l.07-.21h6.89q0,5.21,2.76,7.77a9.67,9.67,0,0,0,6.84,2.57,8.43,8.43,0,0,0,6.22-2.23A8.08,8.08,0,0,0,265.42,214.44Z" transform="translate(-112.26 -175.38)"/><path d="M288.31,227.31h-7.14V176.12h7.14Z" transform="translate(-112.26 -175.38)"/><path d="M332.26,176.12V210q0,8.51-4.79,13.29a16.8,16.8,0,0,1-12.41,4.78,16.28,16.28,0,0,1-12.18-4.8q-4.69-4.8-4.69-13.27V176.12h7.14V210q0,5.94,2.69,9.3a8.57,8.57,0,0,0,7,3.35,9,9,0,0,0,7.26-3.34q2.76-3.33,2.76-9.31V176.12Z" transform="translate(-112.26 -175.38)"/><path d="M341.4,227.31V176.12h14.52a17,17,0,0,1,13.55,6.15q5.25,6.16,5.25,15.83v7.27q0,9.7-5.25,15.82a17,17,0,0,1-13.55,6.12Zm7.13-45.7V221.9h7.39a9.77,9.77,0,0,0,8.43-4.63q3.16-4.62,3.17-11.9V198q0-7.17-3.17-11.79a9.76,9.76,0,0,0-8.43-4.62Z" transform="translate(-112.26 -175.38)"/><path d="M412.94,181.61H399.37v45.7H392.2v-45.7H378.73v-5.49h34.21Z" transform="translate(-112.26 -175.38)"/><path d="M115.4,248.17h-1.33V263h1.33v1.33h-3.14v-17.5h3.14Z" transform="translate(-112.26 -175.38)"/><path d="M122.65,258.3a2.06,2.06,0,0,0-.51-1.44,4.32,4.32,0,0,0-1.76-1,7.06,7.06,0,0,1-2.77-1.45,3,3,0,0,1-1-2.36,3.23,3.23,0,0,1,1.07-2.49,3.9,3.9,0,0,1,2.74-1,3.82,3.82,0,0,1,2.85,1.09,3.6,3.6,0,0,1,1,2.73v0H122.6a2.7,2.7,0,0,0-.6-1.82,2,2,0,0,0-1.57-.69,1.85,1.85,0,0,0-1.47.6,2.17,2.17,0,0,0-.52,1.49,1.84,1.84,0,0,0,.55,1.38,5.21,5.21,0,0,0,1.86,1,6.61,6.61,0,0,1,2.67,1.49,3.27,3.27,0,0,1,.91,2.4,3.12,3.12,0,0,1-1.08,2.49,4.16,4.16,0,0,1-2.82.92,4.53,4.53,0,0,1-2.94-1,3.36,3.36,0,0,1-1.2-2.87l0-.05h1.72a2.54,2.54,0,0,0,.69,1.94,2.4,2.4,0,0,0,1.71.64,2.1,2.1,0,0,0,1.55-.56A2,2,0,0,0,122.65,258.3Z" transform="translate(-112.26 -175.38)"/><path d="M128.14,249.51h-1.79v-1.7h1.79Zm0,12h-1.79V252h1.79Z" transform="translate(-112.26 -175.38)"/><path d="M134.83,259.12a1.3,1.3,0,0,0-.37-.93,5,5,0,0,0-1.42-.84,7,7,0,0,1-2.19-1.2,2.12,2.12,0,0,1-.73-1.67,2.39,2.39,0,0,1,.88-1.87,3.74,3.74,0,0,1,4.66.07,2.58,2.58,0,0,1,.86,2v.06h-1.73a1.79,1.79,0,0,0-.4-1.17,1.34,1.34,0,0,0-1.08-.49,1.44,1.44,0,0,0-1.07.39,1.23,1.23,0,0,0-.38.89,1.14,1.14,0,0,0,.33.86,6.23,6.23,0,0,0,1.41.8,6.54,6.54,0,0,1,2.24,1.22,2.26,2.26,0,0,1,.75,1.74,2.36,2.36,0,0,1-.91,1.93,3.6,3.6,0,0,1-2.38.74,3.43,3.43,0,0,1-2.52-.89,2.67,2.67,0,0,1-.87-2.09v-.05h1.67a1.69,1.69,0,0,0,.52,1.33,1.78,1.78,0,0,0,1.22.41,1.61,1.61,0,0,0,1.11-.36A1.23,1.23,0,0,0,134.83,259.12Z" transform="translate(-112.26 -175.38)"/><path d="M140.54,249.65V252H142v1.27h-1.49v5.66a1.82,1.82,0,0,0,.22,1.05.71.71,0,0,0,.6.32,1.27,1.27,0,0,0,.28,0l.31-.08.18,1.23a2.93,2.93,0,0,1-.57.2,2.67,2.67,0,0,1-.64.07,2,2,0,0,1-1.6-.66,3.18,3.18,0,0,1-.57-2.1v-5.66h-1.26V252h1.26v-2.36Z" transform="translate(-112.26 -175.38)"/><path d="M147.08,261.7a3.31,3.31,0,0,1-2.78-1.3,5.35,5.35,0,0,1-1-3.38v-.41a5.66,5.66,0,0,1,1-3.44,3.13,3.13,0,0,1,2.62-1.34,2.89,2.89,0,0,1,2.48,1.16,5.1,5.1,0,0,1,.84,3.09v1h-5.15a4.73,4.73,0,0,0,.52,2.37,1.73,1.73,0,0,0,1.6.9,3.43,3.43,0,0,0,1.3-.23,3.37,3.37,0,0,0,1-.68l.58,1.1a3.64,3.64,0,0,1-1.25.83A4.5,4.5,0,0,1,147.08,261.7Zm-.17-8.49a1.4,1.4,0,0,0-1.23.71,4.4,4.4,0,0,0-.57,1.9h3.37v-.21a3.45,3.45,0,0,0-.39-1.74A1.26,1.26,0,0,0,146.91,253.21Z" transform="translate(-112.26 -175.38)"/><path d="M153.48,252l.09,1.29a2.93,2.93,0,0,1,1-1.08,2.59,2.59,0,0,1,1.42-.39,2.22,2.22,0,0,1,1.37.44,2.56,2.56,0,0,1,.87,1.32,3.22,3.22,0,0,1,1-1.29,2.42,2.42,0,0,1,1.48-.47,2.28,2.28,0,0,1,2,1,5.36,5.36,0,0,1,.7,3.06v5.62h-1.79v-5.63a4.1,4.1,0,0,0-.37-2.07,1.21,1.21,0,0,0-1.1-.6,1.36,1.36,0,0,0-1,.46,2.78,2.78,0,0,0-.61,1.2c0,.11,0,.22,0,.33v6.31h-1.78v-5.63a4.18,4.18,0,0,0-.38-2,1.22,1.22,0,0,0-1.1-.62,1.56,1.56,0,0,0-1,.32,2,2,0,0,0-.63.87v7.11h-1.8V252Z" transform="translate(-112.26 -175.38)"/><path d="M170.38,261.52c-.08-.29-.14-.54-.18-.77a5.1,5.1,0,0,1-.08-.67,3.52,3.52,0,0,1-1,1.16,2.31,2.31,0,0,1-1.41.46,2.53,2.53,0,0,1-2-.75,3,3,0,0,1-.68-2.07,2.6,2.6,0,0,1,.94-2.12,4.09,4.09,0,0,1,2.64-.77h1.46v-1a2.12,2.12,0,0,0-.39-1.36,1.49,1.49,0,0,0-2.14-.07,1.56,1.56,0,0,0-.38,1.08h-1.71l0-.05a2.43,2.43,0,0,1,.87-1.95,3.39,3.39,0,0,1,2.39-.85,3.22,3.22,0,0,1,2.29.83,3.11,3.11,0,0,1,.88,2.37v4.42a7.22,7.22,0,0,0,.07,1.05,6.85,6.85,0,0,0,.22,1Zm-2.3-1.19a2,2,0,0,0,1.29-.45,2.16,2.16,0,0,0,.74-1.09V257.1h-1.49a1.63,1.63,0,0,0-1.29.52,1.84,1.84,0,0,0-.47,1.26,1.67,1.67,0,0,0,.32,1.06A1.09,1.09,0,0,0,168.08,260.33Z" transform="translate(-112.26 -175.38)"/><path d="M178.09,261.52v-12.8h3.63a4.28,4.28,0,0,1,3.39,1.54,5.91,5.91,0,0,1,1.31,4V256a5.88,5.88,0,0,1-1.31,3.95,4.27,4.27,0,0,1-3.39,1.53Zm1.78-11.43v10.08h1.85a2.45,2.45,0,0,0,2.11-1.16,5.2,5.2,0,0,0,.79-3V254.2a5.16,5.16,0,0,0-.79-2.95,2.45,2.45,0,0,0-2.11-1.16Z" transform="translate(-112.26 -175.38)"/><path d="M191.8,261.7a3.3,3.3,0,0,1-2.78-1.3,5.29,5.29,0,0,1-1-3.38v-.41a5.59,5.59,0,0,1,1-3.44,3.13,3.13,0,0,1,2.62-1.34A2.87,2.87,0,0,1,194.1,253a5,5,0,0,1,.85,3.09v1h-5.16a4.73,4.73,0,0,0,.53,2.37,1.73,1.73,0,0,0,1.6.9,3.43,3.43,0,0,0,1.3-.23,3.37,3.37,0,0,0,1-.68l.58,1.1a3.74,3.74,0,0,1-1.25.83A4.5,4.5,0,0,1,191.8,261.7Zm-.17-8.49a1.4,1.4,0,0,0-1.23.71,4.4,4.4,0,0,0-.57,1.9h3.37v-.21a3.45,3.45,0,0,0-.39-1.74A1.27,1.27,0,0,0,191.63,253.21Z" transform="translate(-112.26 -175.38)"/><path d="M202.65,261.52h-1.78v-12.8h1.78Z" transform="translate(-112.26 -175.38)"/><path d="M206.69,252l.1,1.41a3.25,3.25,0,0,1,1-1.17,2.43,2.43,0,0,1,1.4-.42,2.32,2.32,0,0,1,2,.94,4.79,4.79,0,0,1,.71,2.9v5.85h-1.78v-5.85a3.52,3.52,0,0,0-.38-1.89,1.27,1.27,0,0,0-1.13-.56,1.74,1.74,0,0,0-1,.32,2.27,2.27,0,0,0-.71.89v7.09h-1.79V252Z" transform="translate(-112.26 -175.38)"/><path d="M214.53,261.52v-8.24h-1.26V252h1.26v-1.22a3.4,3.4,0,0,1,.73-2.34,2.6,2.6,0,0,1,2.05-.83,3.29,3.29,0,0,1,.54,0l.61.14-.17,1.31-.35-.07a2.63,2.63,0,0,0-.41,0,1,1,0,0,0-.91.46,2.29,2.29,0,0,0-.31,1.31V252h1.57v1.27h-1.57v8.24Z" transform="translate(-112.26 -175.38)"/><path d="M218.92,256.66a5.66,5.66,0,0,1,1-3.47,3.47,3.47,0,0,1,5.51,0,5.67,5.67,0,0,1,1,3.47v.24a5.62,5.62,0,0,1-1,3.46,3.21,3.21,0,0,1-2.74,1.34,3.25,3.25,0,0,1-2.77-1.34,5.61,5.61,0,0,1-1-3.46Zm1.79.24a5.55,5.55,0,0,0,.49,2.48,1.61,1.61,0,0,0,3,0,5.62,5.62,0,0,0,.48-2.48v-.24a5.43,5.43,0,0,0-.49-2.47,1.6,1.6,0,0,0-3,0,5.57,5.57,0,0,0-.49,2.47Z" transform="translate(-112.26 -175.38)"/><path d="M232.22,253.5l-.77-.05a1.33,1.33,0,0,0-.94.34,2.23,2.23,0,0,0-.58,1v6.78h-1.79V252h1.64l.13,1.41a3,3,0,0,1,.81-1.17,1.67,1.67,0,0,1,1.13-.42,1,1,0,0,1,.31,0l.26.07Z" transform="translate(-112.26 -175.38)"/><path d="M235.31,252l.1,1.29a2.85,2.85,0,0,1,1-1.08,2.55,2.55,0,0,1,1.41-.39,2.25,2.25,0,0,1,1.38.44,2.69,2.69,0,0,1,.87,1.32,3.2,3.2,0,0,1,1-1.29,2.44,2.44,0,0,1,1.48-.47,2.26,2.26,0,0,1,1.95,1,5.36,5.36,0,0,1,.71,3.06v5.62h-1.8v-5.63a4.24,4.24,0,0,0-.36-2.07,1.22,1.22,0,0,0-1.1-.6,1.38,1.38,0,0,0-1,.46,2.89,2.89,0,0,0-.61,1.2c0,.11,0,.22,0,.33s0,.23,0,.35v6h-1.78v-5.63a4.18,4.18,0,0,0-.38-2,1.22,1.22,0,0,0-1.1-.62,1.57,1.57,0,0,0-1,.32,2.13,2.13,0,0,0-.63.87v7.11h-1.79V252Z" transform="translate(-112.26 -175.38)"/><path d="M252.21,261.52c-.07-.29-.13-.54-.18-.77a5.1,5.1,0,0,1-.08-.67,3.31,3.31,0,0,1-1,1.16,2.27,2.27,0,0,1-1.41.46,2.49,2.49,0,0,1-1.95-.75,3,3,0,0,1-.68-2.07,2.6,2.6,0,0,1,.94-2.12,4.08,4.08,0,0,1,2.63-.77h1.46v-1a2.12,2.12,0,0,0-.39-1.36,1.3,1.3,0,0,0-1.1-.49,1.34,1.34,0,0,0-1,.42,1.56,1.56,0,0,0-.38,1.08h-1.7l0-.05a2.39,2.39,0,0,1,.86-1.95,3.41,3.41,0,0,1,2.39-.85,3.25,3.25,0,0,1,2.3.83,3.14,3.14,0,0,1,.87,2.37v4.42a9,9,0,0,0,.07,1.05,6.85,6.85,0,0,0,.22,1Zm-2.3-1.19a2,2,0,0,0,1.29-.45,2.1,2.1,0,0,0,.74-1.09V257.1h-1.48a1.65,1.65,0,0,0-1.3.52,1.83,1.83,0,0,0-.46,1.26,1.67,1.67,0,0,0,.31,1.06A1.1,1.1,0,0,0,249.91,260.33Z" transform="translate(-112.26 -175.38)"/><path d="M259.08,260.35a1.4,1.4,0,0,0,1.1-.51,2,2,0,0,0,.45-1.38h1.6l0,.05a3,3,0,0,1-.9,2.27,3.35,3.35,0,0,1-5-.42,5.72,5.72,0,0,1-1-3.42v-.33a5.77,5.77,0,0,1,1-3.43,3.14,3.14,0,0,1,2.72-1.35,3,3,0,0,1,2.31,1,3.4,3.4,0,0,1,.87,2.5l0,0h-1.61a2.6,2.6,0,0,0-.43-1.54,1.31,1.31,0,0,0-1.12-.59,1.5,1.5,0,0,0-1.45,1,6,6,0,0,0-.44,2.44v.33a5.78,5.78,0,0,0,.44,2.45A1.49,1.49,0,0,0,259.08,260.35Z" transform="translate(-112.26 -175.38)"/><path d="M265.83,249.51H264v-1.7h1.79Zm0,12H264V252h1.79Z" transform="translate(-112.26 -175.38)"/><path d="M267.65,256.66a5.66,5.66,0,0,1,1-3.47,3.47,3.47,0,0,1,5.51,0,5.66,5.66,0,0,1,1,3.47v.24a5.61,5.61,0,0,1-1,3.46,3.5,3.5,0,0,1-5.51,0,5.61,5.61,0,0,1-1-3.46Zm1.79.24a5.42,5.42,0,0,0,.49,2.48,1.57,1.57,0,0,0,1.49,1,1.55,1.55,0,0,0,1.46-1,5.48,5.48,0,0,0,.49-2.48v-.24a5.43,5.43,0,0,0-.49-2.47,1.57,1.57,0,0,0-1.48-1,1.55,1.55,0,0,0-1.47,1,5.43,5.43,0,0,0-.49,2.47Zm2.65-8.93h2l0,0L272,250.3h-1.49Z" transform="translate(-112.26 -175.38)"/><path d="M278.48,252l.11,1.41a3.25,3.25,0,0,1,1-1.17,2.43,2.43,0,0,1,1.4-.42,2.32,2.32,0,0,1,2,.94,4.79,4.79,0,0,1,.71,2.9v5.85H281.9v-5.85a3.53,3.53,0,0,0-.37-1.89,1.28,1.28,0,0,0-1.13-.56,1.74,1.74,0,0,0-1,.32,2.27,2.27,0,0,0-.71.89v7.09h-1.79V252Z" transform="translate(-112.26 -175.38)"/><path d="M298.25,248.72v8.47a4.53,4.53,0,0,1-1.19,3.32A4.21,4.21,0,0,1,294,261.7a4.07,4.07,0,0,1-3-1.2,4.52,4.52,0,0,1-1.18-3.31v-8.47h1.79v8.47a3.6,3.6,0,0,0,.67,2.32,2.16,2.16,0,0,0,1.76.84,2.26,2.26,0,0,0,1.82-.83,3.58,3.58,0,0,0,.69-2.33v-8.47Z" transform="translate(-112.26 -175.38)"/><path d="M302,252l.11,1.41a3.14,3.14,0,0,1,1-1.17,2.45,2.45,0,0,1,1.4-.42,2.34,2.34,0,0,1,2,.94,4.8,4.8,0,0,1,.7,2.9v5.85h-1.78v-5.85a3.63,3.63,0,0,0-.37-1.89,1.28,1.28,0,0,0-1.13-.56,1.78,1.78,0,0,0-1.06.32,2.25,2.25,0,0,0-.7.89v7.09h-1.79V252Z" transform="translate(-112.26 -175.38)"/><path d="M311.11,249.51h-1.79v-1.7h1.79Zm0,12h-1.79V252h1.79Z" transform="translate(-112.26 -175.38)"/><path d="M316.08,258.66l.15.75h.06l.15-.75,1.67-6.65H320l-2.9,9.51h-1.59L312.54,252h1.87Z" transform="translate(-112.26 -175.38)"/><path d="M324.55,261.7a3.3,3.3,0,0,1-2.78-1.3,5.29,5.29,0,0,1-1-3.38v-.41a5.59,5.59,0,0,1,1-3.44,3.13,3.13,0,0,1,2.62-1.34,2.87,2.87,0,0,1,2.47,1.16,5,5,0,0,1,.85,3.09v1h-5.16a4.73,4.73,0,0,0,.53,2.37,1.73,1.73,0,0,0,1.6.9,3.43,3.43,0,0,0,1.3-.23,3.37,3.37,0,0,0,1-.68l.58,1.1a3.74,3.74,0,0,1-1.25.83A4.5,4.5,0,0,1,324.55,261.7Zm-.17-8.49a1.4,1.4,0,0,0-1.23.71,4.4,4.4,0,0,0-.57,1.9H326v-.21a3.45,3.45,0,0,0-.39-1.74A1.27,1.27,0,0,0,324.38,253.21Z" transform="translate(-112.26 -175.38)"/><path d="M333.39,253.5l-.77-.05a1.33,1.33,0,0,0-.94.34,2.23,2.23,0,0,0-.58,1v6.78h-1.79V252H331l.12,1.41a3,3,0,0,1,.81-1.17,1.67,1.67,0,0,1,1.13-.42,1,1,0,0,1,.31,0,1.38,1.38,0,0,1,.26.07Z" transform="translate(-112.26 -175.38)"/><path d="M339.36,259.12a1.3,1.3,0,0,0-.37-.93,5,5,0,0,0-1.42-.84,7,7,0,0,1-2.19-1.2,2.12,2.12,0,0,1-.73-1.67,2.39,2.39,0,0,1,.88-1.87,3.74,3.74,0,0,1,4.66.07,2.58,2.58,0,0,1,.86,2v.06h-1.73a1.79,1.79,0,0,0-.4-1.17,1.32,1.32,0,0,0-1.08-.49,1.44,1.44,0,0,0-1.07.39,1.23,1.23,0,0,0-.38.89,1.14,1.14,0,0,0,.33.86,6.23,6.23,0,0,0,1.41.8,6.54,6.54,0,0,1,2.24,1.22,2.24,2.24,0,0,1,.76,1.74,2.39,2.39,0,0,1-.91,1.93,3.65,3.65,0,0,1-2.39.74,3.43,3.43,0,0,1-2.52-.89,2.67,2.67,0,0,1-.87-2.09v-.05h1.67a1.69,1.69,0,0,0,.52,1.33,1.78,1.78,0,0,0,1.22.41,1.61,1.61,0,0,0,1.11-.36A1.23,1.23,0,0,0,339.36,259.12Z" transform="translate(-112.26 -175.38)"/><path d="M344.68,249.51h-1.79v-1.7h1.79Zm0,12h-1.79V252h1.79Z" transform="translate(-112.26 -175.38)"/><path d="M349.16,249.65V252h1.48v1.27h-1.48v5.66a1.82,1.82,0,0,0,.22,1.05.7.7,0,0,0,.59.32,1.36,1.36,0,0,0,.29,0,2.75,2.75,0,0,0,.3-.08l.19,1.23a2.93,2.93,0,0,1-.57.2,2.73,2.73,0,0,1-.64.07,2,2,0,0,1-1.6-.66,3.12,3.12,0,0,1-.58-2.1v-5.66h-1.25V252h1.25v-2.36Z" transform="translate(-112.26 -175.38)"/><path d="M357.2,261.52c-.08-.29-.14-.54-.18-.77a5.1,5.1,0,0,1-.08-.67,3.52,3.52,0,0,1-1,1.16,2.31,2.31,0,0,1-1.41.46,2.53,2.53,0,0,1-2-.75,3,3,0,0,1-.68-2.07,2.63,2.63,0,0,1,.94-2.12,4.09,4.09,0,0,1,2.64-.77h1.46v-1a2.12,2.12,0,0,0-.39-1.36,1.49,1.49,0,0,0-2.14-.07,1.56,1.56,0,0,0-.38,1.08h-1.71l0-.05a2.43,2.43,0,0,1,.87-1.95,3.39,3.39,0,0,1,2.39-.85,3.22,3.22,0,0,1,2.29.83,3.11,3.11,0,0,1,.88,2.37v4.42a7.22,7.22,0,0,0,.07,1.05,6.85,6.85,0,0,0,.22,1Zm-2.3-1.19a2,2,0,0,0,1.29-.45,2.16,2.16,0,0,0,.74-1.09V257.1h-1.49a1.63,1.63,0,0,0-1.29.52,1.84,1.84,0,0,0-.47,1.26,1.67,1.67,0,0,0,.32,1.06A1.09,1.09,0,0,0,354.9,260.33Z" transform="translate(-112.26 -175.38)"/><path d="M364.84,253.5l-.78-.05a1.32,1.32,0,0,0-.93.34,2.23,2.23,0,0,0-.58,1v6.78h-1.79V252h1.64l.13,1.41a3.14,3.14,0,0,1,.8-1.17,1.71,1.71,0,0,1,1.14-.42,1.06,1.06,0,0,1,.31,0l.26.07Z" transform="translate(-112.26 -175.38)"/><path d="M368.2,249.51h-1.79v-1.7h1.79Zm0,12h-1.79V252h1.79Z" transform="translate(-112.26 -175.38)"/><path d="M375.32,261.52c-.07-.29-.13-.54-.18-.77a5.1,5.1,0,0,1-.08-.67,3.41,3.41,0,0,1-1,1.16,2.27,2.27,0,0,1-1.41.46,2.53,2.53,0,0,1-2-.75,3,3,0,0,1-.68-2.07,2.61,2.61,0,0,1,.95-2.12,4.08,4.08,0,0,1,2.63-.77h1.46v-1a2.12,2.12,0,0,0-.39-1.36,1.3,1.3,0,0,0-1.1-.49,1.34,1.34,0,0,0-1,.42,1.56,1.56,0,0,0-.38,1.08h-1.7l0-.05a2.39,2.39,0,0,1,.86-1.95,3.41,3.41,0,0,1,2.39-.85,3.21,3.21,0,0,1,2.29.83,3.11,3.11,0,0,1,.88,2.37v4.42a9,9,0,0,0,.07,1.05,6.85,6.85,0,0,0,.22,1Zm-2.3-1.19a2,2,0,0,0,1.29-.45,2.1,2.1,0,0,0,.74-1.09V257.1h-1.49a1.63,1.63,0,0,0-1.29.52,1.83,1.83,0,0,0-.46,1.26,1.67,1.67,0,0,0,.31,1.06A1.09,1.09,0,0,0,373,260.33Z" transform="translate(-112.26 -175.38)"/><path d="M386.72,255h0l2.68-6.24h2l-3.84,8.19v4.61h-1.78v-4.74l-3.78-8.06h2Z" transform="translate(-112.26 -175.38)"/><path d="M396.89,261.52v-12.8h3.63a4.28,4.28,0,0,1,3.39,1.54,5.91,5.91,0,0,1,1.31,4V256a5.88,5.88,0,0,1-1.31,3.95,4.27,4.27,0,0,1-3.39,1.53Zm1.78-11.43v10.08h1.85a2.45,2.45,0,0,0,2.11-1.16,5.13,5.13,0,0,0,.79-3V254.2a5.08,5.08,0,0,0-.79-2.95,2.45,2.45,0,0,0-2.11-1.16Z" transform="translate(-112.26 -175.38)"/><path d="M410.6,261.7a3.31,3.31,0,0,1-2.78-1.3,5.35,5.35,0,0,1-1-3.38v-.41a5.59,5.59,0,0,1,1-3.44,3.11,3.11,0,0,1,2.61-1.34,2.89,2.89,0,0,1,2.48,1.16,5.1,5.1,0,0,1,.85,3.09v1H408.6a4.73,4.73,0,0,0,.52,2.37,1.73,1.73,0,0,0,1.6.9,3.06,3.06,0,0,0,2.32-.91l.59,1.1a3.79,3.79,0,0,1-1.26.83A4.5,4.5,0,0,1,410.6,261.7Zm-.17-8.49a1.4,1.4,0,0,0-1.23.71,4.4,4.4,0,0,0-.57,1.9H412v-.21a3.56,3.56,0,0,0-.38-1.74A1.28,1.28,0,0,0,410.43,253.21Z" transform="translate(-112.26 -175.38)"/><path d="M419.87,259.12a1.26,1.26,0,0,0-.37-.93,4.74,4.74,0,0,0-1.41-.84,7.24,7.24,0,0,1-2.2-1.2,2.15,2.15,0,0,1-.73-1.67,2.4,2.4,0,0,1,.89-1.87,3.74,3.74,0,0,1,4.66.07,2.62,2.62,0,0,1,.86,2l0,.06h-1.72a1.79,1.79,0,0,0-.4-1.17,1.36,1.36,0,0,0-1.09-.49,1.41,1.41,0,0,0-1.06.39,1.2,1.2,0,0,0-.39.89,1.14,1.14,0,0,0,.33.86,6.23,6.23,0,0,0,1.41.8,6.5,6.5,0,0,1,2.25,1.22,2.26,2.26,0,0,1,.75,1.74,2.36,2.36,0,0,1-.91,1.93,3.6,3.6,0,0,1-2.38.74,3.43,3.43,0,0,1-2.52-.89,2.68,2.68,0,0,1-.88-2.09l0-.05h1.66a1.73,1.73,0,0,0,.53,1.33,1.78,1.78,0,0,0,1.21.41,1.58,1.58,0,0,0,1.11-.36A1.2,1.2,0,0,0,419.87,259.12Z" transform="translate(-112.26 -175.38)"/><path d="M428.23,261.52c-.07-.29-.13-.54-.18-.77a5.1,5.1,0,0,1-.08-.67,3.41,3.41,0,0,1-1,1.16,2.27,2.27,0,0,1-1.41.46,2.53,2.53,0,0,1-2-.75,3,3,0,0,1-.68-2.07,2.61,2.61,0,0,1,.95-2.12,4.08,4.08,0,0,1,2.63-.77H428v-1a2.12,2.12,0,0,0-.39-1.36,1.3,1.3,0,0,0-1.1-.49,1.34,1.34,0,0,0-1,.42,1.56,1.56,0,0,0-.38,1.08h-1.7l0-.05a2.39,2.39,0,0,1,.86-1.95,3.41,3.41,0,0,1,2.39-.85,3.21,3.21,0,0,1,2.29.83,3.11,3.11,0,0,1,.88,2.37v4.42a9,9,0,0,0,.07,1.05,6.85,6.85,0,0,0,.22,1Zm-2.3-1.19a2,2,0,0,0,1.29-.45,2.1,2.1,0,0,0,.74-1.09V257.1h-1.49a1.63,1.63,0,0,0-1.29.52,1.83,1.83,0,0,0-.46,1.26,1.67,1.67,0,0,0,.31,1.06A1.09,1.09,0,0,0,425.93,260.33Z" transform="translate(-112.26 -175.38)"/><path d="M435.87,253.5l-.77-.05a1.33,1.33,0,0,0-.94.34,2.23,2.23,0,0,0-.58,1v6.78h-1.79V252h1.65l.12,1.41a3,3,0,0,1,.81-1.17,1.69,1.69,0,0,1,1.13-.42,1,1,0,0,1,.31,0,1.38,1.38,0,0,1,.26.07Z" transform="translate(-112.26 -175.38)"/><path d="M436.79,256.66a5.73,5.73,0,0,1,1-3.47,3.47,3.47,0,0,1,5.51,0,5.67,5.67,0,0,1,1,3.47v.24a5.68,5.68,0,0,1-1,3.46,3.51,3.51,0,0,1-5.52,0,5.68,5.68,0,0,1-1-3.46Zm1.8.24a5.56,5.56,0,0,0,.48,2.48,1.59,1.59,0,0,0,1.49,1,1.57,1.57,0,0,0,1.47-1,5.62,5.62,0,0,0,.48-2.48v-.24a5.43,5.43,0,0,0-.49-2.47,1.6,1.6,0,0,0-2.95,0,5.57,5.57,0,0,0-.48,2.47Z" transform="translate(-112.26 -175.38)"/><path d="M447.92,261.52h-1.79V247.81h1.79Z" transform="translate(-112.26 -175.38)"/><path d="M452,261.52h-1.8V247.81H452Z" transform="translate(-112.26 -175.38)"/><path d="M453.83,256.66a5.66,5.66,0,0,1,1-3.47,3.46,3.46,0,0,1,5.5,0,5.67,5.67,0,0,1,1,3.47v.24a5.61,5.61,0,0,1-1,3.46,3.5,3.5,0,0,1-5.51,0,5.61,5.61,0,0,1-1-3.46Zm1.79.24a5.42,5.42,0,0,0,.49,2.48,1.61,1.61,0,0,0,2.95,0,5.61,5.61,0,0,0,.49-2.48v-.24a5.57,5.57,0,0,0-.49-2.47,1.57,1.57,0,0,0-1.48-1,1.55,1.55,0,0,0-1.47,1,5.43,5.43,0,0,0-.49,2.47Z" transform="translate(-112.26 -175.38)"/><path d="M474.85,250.09h-3.39v11.43h-1.8V250.09H466.3v-1.37h8.55Z" transform="translate(-112.26 -175.38)"/><path d="M478.75,261.7a3.31,3.31,0,0,1-2.78-1.3,5.35,5.35,0,0,1-1-3.38v-.41a5.59,5.59,0,0,1,1-3.44,3.11,3.11,0,0,1,2.61-1.34,2.89,2.89,0,0,1,2.48,1.16,5.1,5.1,0,0,1,.85,3.09v1h-5.16a4.73,4.73,0,0,0,.52,2.37,1.73,1.73,0,0,0,1.61.9,3.47,3.47,0,0,0,1.3-.23,3.64,3.64,0,0,0,1-.68l.58,1.1a3.79,3.79,0,0,1-1.26.83A4.5,4.5,0,0,1,478.75,261.7Zm-.17-8.49a1.4,1.4,0,0,0-1.23.71,4.4,4.4,0,0,0-.57,1.9h3.37v-.21a3.56,3.56,0,0,0-.38-1.74A1.28,1.28,0,0,0,478.58,253.21Z" transform="translate(-112.26 -175.38)"/><path d="M486.82,260.35a1.39,1.39,0,0,0,1.1-.51,2,2,0,0,0,.45-1.38H490v.05a2.93,2.93,0,0,1-.9,2.27,3.1,3.1,0,0,1-2.27.92,3.14,3.14,0,0,1-2.72-1.34,5.78,5.78,0,0,1-1-3.42v-.33a5.84,5.84,0,0,1,1-3.43,3.14,3.14,0,0,1,2.72-1.35,3,3,0,0,1,2.32,1,3.44,3.44,0,0,1,.86,2.5l0,0h-1.61a2.6,2.6,0,0,0-.43-1.54,1.3,1.3,0,0,0-1.12-.59,1.5,1.5,0,0,0-1.45,1,6,6,0,0,0-.44,2.44v.33a5.93,5.93,0,0,0,.44,2.45A1.5,1.5,0,0,0,486.82,260.35Z" transform="translate(-112.26 -175.38)"/><path d="M493.28,252l.11,1.41a3.25,3.25,0,0,1,1-1.17,2.4,2.4,0,0,1,1.39-.42,2.34,2.34,0,0,1,2,.94,4.8,4.8,0,0,1,.7,2.9v5.85H496.7v-5.85a3.63,3.63,0,0,0-.37-1.89,1.28,1.28,0,0,0-1.13-.56,1.78,1.78,0,0,0-1.06.32,2.25,2.25,0,0,0-.7.89v7.09h-1.79V252Z" transform="translate(-112.26 -175.38)"/><path d="M500.16,256.66a5.73,5.73,0,0,1,1-3.47,3.47,3.47,0,0,1,5.51,0,5.67,5.67,0,0,1,1,3.47v.24a5.62,5.62,0,0,1-1,3.46,3.21,3.21,0,0,1-2.74,1.34,3.25,3.25,0,0,1-2.77-1.34,5.68,5.68,0,0,1-1-3.46Zm1.8.24a5.56,5.56,0,0,0,.48,2.48,1.61,1.61,0,0,0,3,0,5.62,5.62,0,0,0,.48-2.48v-.24a5.43,5.43,0,0,0-.49-2.47,1.6,1.6,0,0,0-2.95,0,5.57,5.57,0,0,0-.48,2.47Z" transform="translate(-112.26 -175.38)"/><path d="M511.29,261.52H509.5V247.81h1.79Z" transform="translate(-112.26 -175.38)"/><path d="M513.11,256.66a5.66,5.66,0,0,1,1-3.47,3.47,3.47,0,0,1,5.51,0,5.66,5.66,0,0,1,1,3.47v.24a5.61,5.61,0,0,1-1,3.46,3.5,3.5,0,0,1-5.51,0,5.61,5.61,0,0,1-1-3.46Zm1.79.24a5.42,5.42,0,0,0,.49,2.48,1.57,1.57,0,0,0,1.49,1,1.55,1.55,0,0,0,1.46-1,5.48,5.48,0,0,0,.49-2.48v-.24a5.43,5.43,0,0,0-.49-2.47,1.6,1.6,0,0,0-3,0,5.43,5.43,0,0,0-.49,2.47Zm2.65-8.93h2l0,0-2.13,2.29H516Z" transform="translate(-112.26 -175.38)"/><path d="M522,256.88a7.12,7.12,0,0,1,.83-3.67,2.63,2.63,0,0,1,2.36-1.38,2.35,2.35,0,0,1,1.3.36,3,3,0,0,1,1,1l.17-1.2h1.49v9.53a3.85,3.85,0,0,1-1,2.82,3.64,3.64,0,0,1-2.75,1,5.13,5.13,0,0,1-1.29-.18,5.2,5.2,0,0,1-1.25-.51l.29-1.33a5.14,5.14,0,0,0,1.05.43,4.68,4.68,0,0,0,1.19.15,1.78,1.78,0,0,0,1.47-.59,2.84,2.84,0,0,0,.48-1.8v-.94a2.48,2.48,0,0,1-2.15,1.11,2.65,2.65,0,0,1-2.34-1.27,6.09,6.09,0,0,1-.83-3.37Zm1.79.18a5.45,5.45,0,0,0,.44,2.39,1.46,1.46,0,0,0,1.4.87,1.66,1.66,0,0,0,1-.3,2.23,2.23,0,0,0,.68-.87v-4.68a2.3,2.3,0,0,0-.68-.91,1.5,1.5,0,0,0-1-.34,1.48,1.48,0,0,0-1.4,1,6.53,6.53,0,0,0-.45,2.64Z" transform="translate(-112.26 -175.38)"/><path d="M533.09,249.51H531.3v-1.7h1.79Zm0,12H531.3V252h1.79Z" transform="translate(-112.26 -175.38)"/><path d="M538.58,260.35a1.39,1.39,0,0,0,1.1-.51,2,2,0,0,0,.45-1.38h1.6l0,.05a2.93,2.93,0,0,1-.9,2.27,3.35,3.35,0,0,1-5-.42,5.71,5.71,0,0,1-1-3.42v-.33a5.77,5.77,0,0,1,1-3.43,3.14,3.14,0,0,1,2.72-1.35,3,3,0,0,1,2.31,1,3.4,3.4,0,0,1,.87,2.5l0,0h-1.61a2.6,2.6,0,0,0-.43-1.54,1.3,1.3,0,0,0-1.12-.59,1.5,1.5,0,0,0-1.45,1,6,6,0,0,0-.44,2.44v.33a5.93,5.93,0,0,0,.44,2.45A1.5,1.5,0,0,0,538.58,260.35Z" transform="translate(-112.26 -175.38)"/><path d="M543.06,256.66a5.73,5.73,0,0,1,1-3.47,3.47,3.47,0,0,1,5.51,0,5.67,5.67,0,0,1,1,3.47v.24a5.62,5.62,0,0,1-1,3.46,3.21,3.21,0,0,1-2.74,1.34,3.25,3.25,0,0,1-2.77-1.34,5.68,5.68,0,0,1-1-3.46Zm1.79.24a5.55,5.55,0,0,0,.49,2.48,1.61,1.61,0,0,0,3,0,5.62,5.62,0,0,0,.48-2.48v-.24a5.43,5.43,0,0,0-.49-2.47,1.6,1.6,0,0,0-2.95,0,5.57,5.57,0,0,0-.49,2.47Z" transform="translate(-112.26 -175.38)"/><path d="M551.38,246.82h3.16v17.5h-3.16V263h1.35V248.17h-1.35Z" transform="translate(-112.26 -175.38)"/></svg>