<svg xmlns="http://www.w3.org/2000/svg" viewBox="0 0 403.91 100.71"><defs><style>.cls-1{fill:#fff;}</style></defs><g id="Capa_2" data-name="Capa 2"><g id="Capa_1-2" data-name="Capa 1"><path class="cls-1" d="M134.35,39.06a8.39,8.39,0,0,0-2-5.78c-1.33-1.52-3.69-2.89-7.06-4.14q-7.22-2.24-11.08-5.8a12.2,12.2,0,0,1-3.87-9.45,12.94,12.94,0,0,1,4.28-10,15.55,15.55,0,0,1,11-3.92Q132.65,0,137,4.36a14.5,14.5,0,0,1,4.15,10.93l-.07.21h-6.86a10.76,10.76,0,0,0-2.39-7.27,7.9,7.9,0,0,0-6.29-2.78,7.42,7.42,0,0,0-5.89,2.39,8.72,8.72,0,0,0-2.09,6,7.42,7.42,0,0,0,2.21,5.52q2.22,2.18,7.45,4.11,7,2.28,10.66,6A13,13,0,0,1,141.48,39a12.5,12.5,0,0,1-4.3,10c-2.88,2.47-6.64,3.7-11.31,3.7a18.19,18.19,0,0,1-11.74-4q-5-4-4.82-11.5l.07-.21h6.9c0,3.47.91,6.06,2.76,7.77a9.65,9.65,0,0,0,6.83,2.57,8.46,8.46,0,0,0,6.23-2.24A8.05,8.05,0,0,0,134.35,39.06Z"/><path class="cls-1" d="M182.12,45.25a15.85,15.85,0,0,1-5.82,5.16A20.76,20.76,0,0,1,166,52.66q-8,0-12.92-4.88t-4.9-13.92V18.67q0-8.9,4.74-13.78T165.56,0q7.77,0,12,4t4.08,11l-.07.21h-6.71q0-4.61-2.34-7.16T165.7,5.48a9.26,9.26,0,0,0-7.57,3.36q-2.76,3.36-2.76,9.76V33.86c0,4.35.95,7.68,2.86,10A9.61,9.61,0,0,0,166,47.25a12.43,12.43,0,0,0,5.78-1.13A7.61,7.61,0,0,0,175,43.38V31.46h-9.42v-5.2h16.59Z"/><path class="cls-1" d="M223.61,36.53l.07.21q.13,7.56-4.22,11.74t-12,4.18q-7.87,0-12.55-5t-4.68-14.15V19.27q0-9.07,4.61-14.17T207.22,0q7.84,0,12.24,4.06t4.25,11.87l-.07.21h-6.85q0-5.49-2.39-8.07c-1.6-1.72-4-2.59-7.18-2.59A8.44,8.44,0,0,0,200,9q-2.56,3.52-2.57,10.14V33.47q0,6.68,2.64,10.23a8.72,8.72,0,0,0,7.45,3.55q4.64,0,7-2.55t2.32-8.17Z"/><path class="cls-1" d="M246.18,25.7h.21l10.69-25h8L249.73,33.5V51.93h-7.14V33L227.51.74h8Z"/><path class="cls-1" d="M302,36.53l.07.21q.15,7.56-4.22,11.74t-12,4.18q-7.87,0-12.55-5t-4.67-14.15V19.27q0-9.07,4.6-14.17T285.66,0q7.83,0,12.23,4.06t4.26,11.87l-.07.21h-6.86q0-5.49-2.39-8.07c-1.59-1.72-4-2.59-7.17-2.59A8.46,8.46,0,0,0,278.38,9q-2.56,3.52-2.57,10.14V33.47q0,6.68,2.64,10.23a8.73,8.73,0,0,0,7.45,3.55q4.65,0,7-2.55c1.54-1.7,2.32-4.42,2.32-8.17Z"/><path class="cls-1" d="M4.2,77.79H2.41V97.54H4.2v1.79H0V76H4.2Z"/><path class="cls-1" d="M13.85,91.3a2.78,2.78,0,0,0-.67-1.93A5.94,5.94,0,0,0,10.83,88a9.66,9.66,0,0,1-3.69-1.93,4.07,4.07,0,0,1-1.29-3.15,4.29,4.29,0,0,1,1.42-3.32,5.16,5.16,0,0,1,3.65-1.31,5.08,5.08,0,0,1,3.8,1.45,4.86,4.86,0,0,1,1.38,3.65l0,.07H13.79A3.61,3.61,0,0,0,13,81a2.63,2.63,0,0,0-2.1-.92,2.45,2.45,0,0,0-2,.79,2.9,2.9,0,0,0-.7,2A2.43,2.43,0,0,0,9,84.72a7,7,0,0,0,2.48,1.38,8.6,8.6,0,0,1,3.55,2,4.34,4.34,0,0,1,1.22,3.18,4.17,4.17,0,0,1-1.44,3.33A5.56,5.56,0,0,1,11,95.83,6.08,6.08,0,0,1,7.11,94.5a4.48,4.48,0,0,1-1.6-3.83l0-.07h2.3a3.37,3.37,0,0,0,.92,2.59A3.21,3.21,0,0,0,11,94a2.83,2.83,0,0,0,2.07-.74A2.71,2.71,0,0,0,13.85,91.3Z"/><path class="cls-1" d="M21.18,79.58H18.79V77.31h2.39Zm0,16H18.79V82.91h2.39Z"/><path class="cls-1" d="M30.09,92.39a1.69,1.69,0,0,0-.49-1.24A6.83,6.83,0,0,0,27.71,90a9.27,9.27,0,0,1-2.92-1.6,2.85,2.85,0,0,1-1-2.23A3.23,3.23,0,0,1,25,83.7a4.53,4.53,0,0,1,3.06-1,4.43,4.43,0,0,1,3.16,1.13,3.52,3.52,0,0,1,1.15,2.74l0,.07H30a2.34,2.34,0,0,0-.54-1.55,1.75,1.75,0,0,0-1.45-.65,1.93,1.93,0,0,0-1.42.51,1.62,1.62,0,0,0-.51,1.19,1.51,1.51,0,0,0,.44,1.14,7.72,7.72,0,0,0,1.88,1.07,8.67,8.67,0,0,1,3,1.63,3.06,3.06,0,0,1,1,2.32,3.16,3.16,0,0,1-1.22,2.57,4.84,4.84,0,0,1-3.18,1,4.56,4.56,0,0,1-3.35-1.19,3.55,3.55,0,0,1-1.17-2.78l0-.07h2.22a2.31,2.31,0,0,0,.7,1.78,2.44,2.44,0,0,0,1.62.54,2.08,2.08,0,0,0,1.48-.49A1.56,1.56,0,0,0,30.09,92.39Z"/><path class="cls-1" d="M37.71,79.76v3.15h2v1.7h-2v7.54a2.44,2.44,0,0,0,.3,1.4.92.92,0,0,0,.79.42,2.34,2.34,0,0,0,.38,0l.41-.11.24,1.64a3.31,3.31,0,0,1-.75.26,3.57,3.57,0,0,1-.87.1A2.66,2.66,0,0,1,36.08,95a4.22,4.22,0,0,1-.76-2.8V84.61H33.64v-1.7h1.68V79.76Z"/><path class="cls-1" d="M46.43,95.83a4.42,4.42,0,0,1-3.71-1.73,7.2,7.2,0,0,1-1.34-4.51V89a7.45,7.45,0,0,1,1.33-4.58,4.19,4.19,0,0,1,3.5-1.79,3.87,3.87,0,0,1,3.3,1.54,6.82,6.82,0,0,1,1.13,4.12v1.34H43.76a6.18,6.18,0,0,0,.7,3.15A2.28,2.28,0,0,0,46.59,94a4.4,4.4,0,0,0,1.74-.31,4.57,4.57,0,0,0,1.36-.91l.77,1.48a5.22,5.22,0,0,1-1.67,1.1A5.88,5.88,0,0,1,46.43,95.83ZM46.21,84.5a1.85,1.85,0,0,0-1.64,1A5.73,5.73,0,0,0,43.8,88h4.49v-.27a4.66,4.66,0,0,0-.51-2.32A1.69,1.69,0,0,0,46.21,84.5Z"/><path class="cls-1" d="M55,82.91l.13,1.72a4,4,0,0,1,1.34-1.45,3.5,3.5,0,0,1,1.89-.51,3,3,0,0,1,1.83.58A3.49,3.49,0,0,1,61.31,85a4.47,4.47,0,0,1,1.34-1.73,3.26,3.26,0,0,1,2-.62A3,3,0,0,1,67.22,84a7.1,7.1,0,0,1,1,4.08v7.49H65.78v-7.5a5.67,5.67,0,0,0-.49-2.77,1.63,1.63,0,0,0-1.47-.8,1.81,1.81,0,0,0-1.38.61,3.76,3.76,0,0,0-.81,1.61c0,.14,0,.29,0,.44s0,.31,0,.46v8H59.29v-7.5a5.46,5.46,0,0,0-.51-2.74,1.61,1.61,0,0,0-1.46-.83A2.09,2.09,0,0,0,56,85a2.69,2.69,0,0,0-.84,1.16v9.48H52.77V82.91Z"/><path class="cls-1" d="M77.5,95.59a9.77,9.77,0,0,1-.24-1,7,7,0,0,1-.12-.89,4.52,4.52,0,0,1-1.33,1.55,3,3,0,0,1-1.88.61,3.31,3.31,0,0,1-2.6-1,4,4,0,0,1-.91-2.76,3.46,3.46,0,0,1,1.26-2.82,5.38,5.38,0,0,1,3.51-1h1.94v-1.3a2.9,2.9,0,0,0-.51-1.82,1.8,1.8,0,0,0-1.48-.65,1.76,1.76,0,0,0-1.38.57,2,2,0,0,0-.51,1.44H71l0-.07a3.19,3.19,0,0,1,1.15-2.6,4.5,4.5,0,0,1,3.18-1.13,4.26,4.26,0,0,1,3.06,1.11,4.14,4.14,0,0,1,1.17,3.16v5.88a10.07,10.07,0,0,0,.39,2.77ZM74.43,94a2.7,2.7,0,0,0,1.72-.61,2.75,2.75,0,0,0,1-1.46V89.69h-2a2.2,2.2,0,0,0-1.72.7,2.46,2.46,0,0,0-.62,1.68,2.19,2.19,0,0,0,.42,1.41A1.45,1.45,0,0,0,74.43,94Z"/><path class="cls-1" d="M87.77,95.59V78.52h4.84a5.67,5.67,0,0,1,4.52,2.06,7.8,7.8,0,0,1,1.75,5.27v2.42a7.81,7.81,0,0,1-1.75,5.28,5.68,5.68,0,0,1-4.52,2Zm2.38-15.24V93.78h2.46a3.26,3.26,0,0,0,2.82-1.54,6.91,6.91,0,0,0,1-4V85.83a6.86,6.86,0,0,0-1-3.94,3.28,3.28,0,0,0-2.82-1.54Z"/><path class="cls-1" d="M106.05,95.83a4.4,4.4,0,0,1-3.7-1.73A7.14,7.14,0,0,1,101,89.59V89a7.45,7.45,0,0,1,1.34-4.58,4.16,4.16,0,0,1,3.49-1.79,3.85,3.85,0,0,1,3.3,1.54,6.82,6.82,0,0,1,1.13,4.12v1.34h-6.88a6.28,6.28,0,0,0,.7,3.15A2.3,2.3,0,0,0,106.22,94a4.38,4.38,0,0,0,1.73-.31,4.33,4.33,0,0,0,1.36-.91l.78,1.48a5.33,5.33,0,0,1-1.67,1.1A5.93,5.93,0,0,1,106.05,95.83Zm-.22-11.33a1.86,1.86,0,0,0-1.64,1,5.73,5.73,0,0,0-.76,2.52h4.49v-.27a4.66,4.66,0,0,0-.51-2.32A1.71,1.71,0,0,0,105.83,84.5Z"/><path class="cls-1" d="M128.82,93.36a5.18,5.18,0,0,1-1.94,1.72,6.88,6.88,0,0,1-3.42.75,5.83,5.83,0,0,1-4.31-1.63,6.25,6.25,0,0,1-1.63-4.64V84.5a6.27,6.27,0,0,1,1.58-4.59,6.44,6.44,0,0,1,8.2-.3,4.68,4.68,0,0,1,1.36,3.66l0,.07H126.4a3.38,3.38,0,0,0-.78-2.38,2.92,2.92,0,0,0-2.27-.85,3.07,3.07,0,0,0-2.52,1.12,5,5,0,0,0-.92,3.25v5.08a5.07,5.07,0,0,0,1,3.33,3.21,3.21,0,0,0,2.6,1.14,4.17,4.17,0,0,0,1.92-.38,2.51,2.51,0,0,0,1.05-.91v-4h-3.14V87h5.53Z"/><path class="cls-1" d="M136.3,95.83a4.42,4.42,0,0,1-3.71-1.73,7.2,7.2,0,0,1-1.34-4.51V89a7.45,7.45,0,0,1,1.34-4.58,4.16,4.16,0,0,1,3.49-1.79,3.87,3.87,0,0,1,3.3,1.54,6.82,6.82,0,0,1,1.13,4.12v1.34h-6.88a6.18,6.18,0,0,0,.7,3.15A2.28,2.28,0,0,0,136.46,94a4.4,4.4,0,0,0,1.74-.31,4.57,4.57,0,0,0,1.36-.91l.77,1.48a5.22,5.22,0,0,1-1.67,1.1A5.88,5.88,0,0,1,136.3,95.83Zm-.22-11.33a1.85,1.85,0,0,0-1.64,1,5.6,5.6,0,0,0-.76,2.52h4.48v-.27a4.66,4.66,0,0,0-.51-2.32A1.69,1.69,0,0,0,136.08,84.5Z"/><path class="cls-1" d="M148.66,92.39a1.69,1.69,0,0,0-.49-1.24A6.9,6.9,0,0,0,146.29,90a9.22,9.22,0,0,1-2.93-1.6,2.85,2.85,0,0,1-1-2.23,3.23,3.23,0,0,1,1.18-2.5,4.53,4.53,0,0,1,3.06-1,4.43,4.43,0,0,1,3.16,1.13,3.52,3.52,0,0,1,1.15,2.74l0,.07h-2.29a2.34,2.34,0,0,0-.54-1.55,1.75,1.75,0,0,0-1.45-.65,1.93,1.93,0,0,0-1.42.51,1.62,1.62,0,0,0-.51,1.19,1.51,1.51,0,0,0,.44,1.14A7.72,7.72,0,0,0,147,88.32,8.67,8.67,0,0,1,150,90a3.06,3.06,0,0,1,1,2.32,3.16,3.16,0,0,1-1.22,2.57,4.84,4.84,0,0,1-3.18,1,4.56,4.56,0,0,1-3.35-1.19,3.55,3.55,0,0,1-1.17-2.78l0-.07h2.22a2.31,2.31,0,0,0,.7,1.78,2.44,2.44,0,0,0,1.62.54,2.08,2.08,0,0,0,1.48-.49A1.56,1.56,0,0,0,148.66,92.39Z"/><path class="cls-1" d="M156.28,79.76v3.15h2v1.7h-2v7.54a2.44,2.44,0,0,0,.3,1.4.92.92,0,0,0,.79.42,2.34,2.34,0,0,0,.38,0l.41-.11.24,1.64a3.31,3.31,0,0,1-.75.26,3.55,3.55,0,0,1-.86.1,2.67,2.67,0,0,1-2.14-.88,4.22,4.22,0,0,1-.76-2.8V84.61h-1.68v-1.7h1.68V79.76Z"/><path class="cls-1" d="M163,79.58h-2.39V77.31H163Zm0,16h-2.39V82.91H163Z"/><path class="cls-1" d="M165.39,89.11a7.56,7.56,0,0,1,1.33-4.63,4.63,4.63,0,0,1,7.34,0,7.5,7.5,0,0,1,1.35,4.63v.31a7.57,7.57,0,0,1-1.34,4.63,4.68,4.68,0,0,1-7.35,0,7.56,7.56,0,0,1-1.33-4.63Zm2.39.31a7.3,7.3,0,0,0,.65,3.32,2.15,2.15,0,0,0,3.94,0,7.39,7.39,0,0,0,.65-3.31v-.31a7.29,7.29,0,0,0-.66-3.3,2.13,2.13,0,0,0-3.93,0,7.29,7.29,0,0,0-.65,3.3Zm3.52-11.9H174l0,.06-2.84,3h-2Z"/><path class="cls-1" d="M179.84,82.91l.14,1.88a4.25,4.25,0,0,1,1.36-1.56,3.22,3.22,0,0,1,1.86-.56,3.12,3.12,0,0,1,2.63,1.25,6.36,6.36,0,0,1,.94,3.86v7.81h-2.38v-7.8a4.8,4.8,0,0,0-.49-2.53,1.72,1.72,0,0,0-1.51-.74A2.38,2.38,0,0,0,181,85a3,3,0,0,0-.93,1.18v9.46h-2.39V82.91Z"/><path class="cls-1" d="M194.32,89.4a9.42,9.42,0,0,1,1.11-4.89,3.51,3.51,0,0,1,3.13-1.84,3.25,3.25,0,0,1,1.62.41,3.66,3.66,0,0,1,1.23,1.16V77.31h2.38V95.59h-2l-.25-1.53a3.78,3.78,0,0,1-1.28,1.32,3.38,3.38,0,0,1-1.75.45,3.5,3.5,0,0,1-3.11-1.69,8.09,8.09,0,0,1-1.11-4.49Zm2.37.25a7.08,7.08,0,0,0,.6,3.17A2,2,0,0,0,199.15,94a2.17,2.17,0,0,0,1.35-.42,3,3,0,0,0,.91-1.19V86.24A3.32,3.32,0,0,0,200.5,85a2,2,0,0,0-1.34-.47,2,2,0,0,0-1.87,1.36,8.74,8.74,0,0,0-.6,3.52Z"/><path class="cls-1" d="M211.16,95.83a4.42,4.42,0,0,1-3.71-1.73,7.2,7.2,0,0,1-1.34-4.51V89a7.39,7.39,0,0,1,1.34-4.58,4.16,4.16,0,0,1,3.49-1.79,3.87,3.87,0,0,1,3.3,1.54,6.82,6.82,0,0,1,1.13,4.12v1.34h-6.88a6.18,6.18,0,0,0,.7,3.15A2.28,2.28,0,0,0,211.32,94a4.4,4.4,0,0,0,1.74-.31,4.57,4.57,0,0,0,1.36-.91l.77,1.48a5.22,5.22,0,0,1-1.67,1.1A5.88,5.88,0,0,1,211.16,95.83Zm-.22-11.33a1.85,1.85,0,0,0-1.64,1,5.6,5.6,0,0,0-.76,2.52H213v-.27a4.66,4.66,0,0,0-.51-2.32A1.69,1.69,0,0,0,210.94,84.5Z"/><path class="cls-1" d="M233.72,90.45l0,.07a5.08,5.08,0,0,1-1.4,3.92,5.53,5.53,0,0,1-4,1.39,5.42,5.42,0,0,1-4.18-1.68,6.66,6.66,0,0,1-1.56-4.71V84.7A6.8,6.8,0,0,1,224.13,80a5.31,5.31,0,0,1,4.13-1.7,5.81,5.81,0,0,1,4.08,1.35,5,5,0,0,1,1.41,4l0,.07h-2.28a3.86,3.86,0,0,0-.8-2.69,3.08,3.08,0,0,0-2.39-.86,2.83,2.83,0,0,0-2.43,1.17,5.74,5.74,0,0,0-.85,3.39v4.77a5.63,5.63,0,0,0,.88,3.41A2.92,2.92,0,0,0,228.34,94a3,3,0,0,0,2.32-.85,4,4,0,0,0,.77-2.73Z"/><path class="cls-1" d="M241.5,84.89l-1-.06a1.79,1.79,0,0,0-1.25.45,3,3,0,0,0-.77,1.27v9h-2.39V82.91h2.19l.17,1.87a4,4,0,0,1,1.08-1.55,2.26,2.26,0,0,1,1.51-.56,2.59,2.59,0,0,1,.41,0,2.47,2.47,0,0,1,.35.1Z"/><path class="cls-1" d="M247.8,95.83a4.4,4.4,0,0,1-3.7-1.73,7.14,7.14,0,0,1-1.35-4.51V89a7.45,7.45,0,0,1,1.34-4.58,4.16,4.16,0,0,1,3.49-1.79,3.85,3.85,0,0,1,3.3,1.54A6.82,6.82,0,0,1,252,88.33v1.34h-6.88a6.28,6.28,0,0,0,.7,3.15A2.3,2.3,0,0,0,248,94a4.38,4.38,0,0,0,1.73-.31,4.33,4.33,0,0,0,1.36-.91l.78,1.48a5.33,5.33,0,0,1-1.67,1.1A5.93,5.93,0,0,1,247.8,95.83Zm-.22-11.33a1.86,1.86,0,0,0-1.64,1,5.73,5.73,0,0,0-.76,2.52h4.49v-.27a4.66,4.66,0,0,0-.51-2.32A1.71,1.71,0,0,0,247.58,84.5Zm.68-7H251l0,0-2.84,3.06h-2Z"/><path class="cls-1" d="M253.71,89.4a9.42,9.42,0,0,1,1.11-4.89A3.51,3.51,0,0,1,258,82.67a3.25,3.25,0,0,1,1.62.41,3.66,3.66,0,0,1,1.23,1.16V77.31h2.38V95.59h-2L261,94.06a3.78,3.78,0,0,1-1.28,1.32,3.38,3.38,0,0,1-1.75.45,3.5,3.5,0,0,1-3.11-1.69,8.09,8.09,0,0,1-1.11-4.49Zm2.37.25a7.08,7.08,0,0,0,.6,3.17A2,2,0,0,0,258.54,94a2.17,2.17,0,0,0,1.35-.42,3,3,0,0,0,.91-1.19V86.24a3.32,3.32,0,0,0-.91-1.25,2,2,0,0,0-1.34-.47,2,2,0,0,0-1.87,1.36,8.74,8.74,0,0,0-.6,3.52Z"/><path class="cls-1" d="M268.51,79.58h-2.39V77.31h2.39Zm0,16h-2.39V82.91h2.39Z"/><path class="cls-1" d="M274.48,79.76v3.15h2v1.7h-2v7.54a2.44,2.44,0,0,0,.3,1.4.91.91,0,0,0,.79.42,2.22,2.22,0,0,0,.37,0l.41-.11.25,1.64a3.4,3.4,0,0,1-.76.26,3.49,3.49,0,0,1-.86.1,2.66,2.66,0,0,1-2.13-.88,4.22,4.22,0,0,1-.76-2.8V84.61h-1.68v-1.7h1.68V79.76Z"/><path class="cls-1" d="M278.13,89.11a7.57,7.57,0,0,1,1.34-4.63,4.63,4.63,0,0,1,7.34,0,7.5,7.5,0,0,1,1.34,4.63v.31a7.56,7.56,0,0,1-1.33,4.63,4.68,4.68,0,0,1-7.35,0,7.57,7.57,0,0,1-1.34-4.63Zm2.39.31a7.43,7.43,0,0,0,.65,3.32,2.12,2.12,0,0,0,2,1.29,2.07,2.07,0,0,0,1.95-1.3,7.39,7.39,0,0,0,.65-3.31v-.31a7.43,7.43,0,0,0-.65-3.3,2.14,2.14,0,0,0-3.94,0,7.43,7.43,0,0,0-.65,3.3Z"/><path class="cls-1" d="M299.31,91.22l.19.85h.07l2.48-9.16h2.61l-4.53,14.65a6.68,6.68,0,0,1-1.21,2.22,2.72,2.72,0,0,1-2.22.93,3,3,0,0,1-.64-.07l-.67-.14.27-1.76.35.05.36,0a1.28,1.28,0,0,0,1.11-.59,4.74,4.74,0,0,0,.64-1.4l.44-1.31-4-12.6h2.6Z"/><path class="cls-1" d="M322.49,90.45l0,.07a5.08,5.08,0,0,1-1.4,3.92,5.55,5.55,0,0,1-4,1.39,5.41,5.41,0,0,1-4.18-1.68,6.66,6.66,0,0,1-1.56-4.71V84.7A6.8,6.8,0,0,1,312.9,80a5.31,5.31,0,0,1,4.13-1.7,5.81,5.81,0,0,1,4.08,1.35,5,5,0,0,1,1.41,4l0,.07h-2.29a3.86,3.86,0,0,0-.79-2.69,3.08,3.08,0,0,0-2.39-.86,2.83,2.83,0,0,0-2.43,1.17,5.74,5.74,0,0,0-.85,3.39v4.77a5.71,5.71,0,0,0,.87,3.41,3.38,3.38,0,0,0,4.81.33,4,4,0,0,0,.77-2.73Z"/><path class="cls-1" d="M324.35,89.11a7.57,7.57,0,0,1,1.34-4.63,4.63,4.63,0,0,1,7.34,0,7.57,7.57,0,0,1,1.34,4.63v.31A7.56,7.56,0,0,1,333,94.05a4.68,4.68,0,0,1-7.35,0,7.57,7.57,0,0,1-1.34-4.63Zm2.39.31a7.43,7.43,0,0,0,.65,3.32,2.12,2.12,0,0,0,2,1.29,2.07,2.07,0,0,0,1.95-1.3,7.39,7.39,0,0,0,.65-3.31v-.31a7.29,7.29,0,0,0-.66-3.3,2.13,2.13,0,0,0-3.93,0,7.43,7.43,0,0,0-.65,3.3Z"/><path class="cls-1" d="M346.17,89.65a8.1,8.1,0,0,1-1.11,4.5,3.53,3.53,0,0,1-3.13,1.68,3.4,3.4,0,0,1-1.8-.46A3.68,3.68,0,0,1,338.86,94l-.26,1.57h-2V77.31H339v7a3.61,3.61,0,0,1,1.21-1.19,3.26,3.26,0,0,1,1.67-.42,3.46,3.46,0,0,1,3.14,1.84,9.37,9.37,0,0,1,1.11,4.89Zm-2.39-.25a9,9,0,0,0-.58-3.54,2,2,0,0,0-1.88-1.34,2.07,2.07,0,0,0-1.39.49,3.11,3.11,0,0,0-.89,1.3v6a2.77,2.77,0,0,0,.88,1.24,2.21,2.21,0,0,0,1.42.44,1.94,1.94,0,0,0,1.86-1.16,7.2,7.2,0,0,0,.58-3.18Z"/><path class="cls-1" d="M353.89,84.89l-1-.06a1.77,1.77,0,0,0-1.24.45,2.85,2.85,0,0,0-.77,1.27v9h-2.39V82.91h2.19l.16,1.87a4,4,0,0,1,1.08-1.55,2.28,2.28,0,0,1,1.51-.56,2.72,2.72,0,0,1,.42,0,2.31,2.31,0,0,1,.34.1Z"/><path class="cls-1" d="M362.43,95.59a9.77,9.77,0,0,1-.24-1,7,7,0,0,1-.12-.89,4.64,4.64,0,0,1-1.33,1.55,3,3,0,0,1-1.88.61,3.31,3.31,0,0,1-2.6-1,4,4,0,0,1-.91-2.76,3.46,3.46,0,0,1,1.26-2.82,5.38,5.38,0,0,1,3.51-1h1.94v-1.3a2.9,2.9,0,0,0-.51-1.82,1.8,1.8,0,0,0-1.48-.65,1.76,1.76,0,0,0-1.38.57,2,2,0,0,0-.51,1.44h-2.27l0-.07A3.19,3.19,0,0,1,357,83.8a4.5,4.5,0,0,1,3.18-1.13,4.26,4.26,0,0,1,3.06,1.11,4.14,4.14,0,0,1,1.17,3.16v5.88a10.07,10.07,0,0,0,.39,2.77ZM359.36,94a2.7,2.7,0,0,0,1.72-.61,2.75,2.75,0,0,0,1-1.46V89.69h-2a2.2,2.2,0,0,0-1.72.7,2.46,2.46,0,0,0-.62,1.68,2.19,2.19,0,0,0,.42,1.41A1.45,1.45,0,0,0,359.36,94Z"/><path class="cls-1" d="M369.33,82.91l.14,1.88a4.25,4.25,0,0,1,1.36-1.56,3.26,3.26,0,0,1,1.86-.56,3.11,3.11,0,0,1,2.63,1.25,6.35,6.35,0,0,1,.95,3.86v7.81h-2.38v-7.8a4.78,4.78,0,0,0-.5-2.53,1.71,1.71,0,0,0-1.51-.74,2.35,2.35,0,0,0-1.4.43,3,3,0,0,0-.94,1.18v9.46h-2.39V82.91Z"/><path class="cls-1" d="M381.21,93.78h6.18v1.81h-8.85v-1.5l5.85-9.34h-5.72V82.91h8.45v1.47Z"/><path class="cls-1" d="M396.15,95.59c-.1-.39-.18-.73-.24-1a7,7,0,0,1-.11-.89,4.75,4.75,0,0,1-1.33,1.55,3.07,3.07,0,0,1-1.88.61,3.35,3.35,0,0,1-2.61-1,4,4,0,0,1-.91-2.76,3.46,3.46,0,0,1,1.26-2.82,5.38,5.38,0,0,1,3.51-1h2v-1.3a2.84,2.84,0,0,0-.52-1.82,2,2,0,0,0-2.85-.08,2,2,0,0,0-.51,1.44h-2.27l0-.07a3.26,3.26,0,0,1,1.15-2.6A4.52,4.52,0,0,1,394,82.67,4.26,4.26,0,0,1,397,83.78a4.14,4.14,0,0,1,1.17,3.16v5.88a10.67,10.67,0,0,0,.09,1.41,9.18,9.18,0,0,0,.3,1.36ZM393.08,94a2.68,2.68,0,0,0,1.72-.61,2.82,2.82,0,0,0,1-1.46V89.69h-2a2.19,2.19,0,0,0-1.72.7,2.42,2.42,0,0,0-.63,1.68,2.2,2.2,0,0,0,.43,1.41A1.44,1.44,0,0,0,393.08,94Z"/><path class="cls-1" d="M399.7,76h4.21V99.33H399.7V97.54h1.8V77.79h-1.8Z"/></g></g></svg>